# xmcd
#
# Track frame offsets:
#	150
#	9790
#	21688
#	34522
#	48740
#	62491
#	72146
#	85037
#	96476
#	109901
#	125507
#	136458
#	150017
#	162535
#	174606
#	183612
#	198301
#	209048
#	221056
#	241493
#	254131
#	266500
#
# Disc length: 3878 seconds
#
# Revision: 1
# Processed by: cddbd v1.5.2PL0 Copyright (c) Steve Scherf et al.
# Submitted via: audiograbber 1.83.01
#
DISCID=480f2416
DTITLE=E. H. King Music - E. H. King Music 082
DYEAR=2007
DGENRE=Country
TTITLE0=The Northern Lights  - Jim Barribeau
TTITLE1=The Crystal Place  - Willie Harris
TTITLE2=God큦 Neither Here Nor There  - Kitty Houston
TTITLE3=Civred By The Red , White And Blue  - Ray R Jones
TTITLE4=So Far From Grace  - T J Murr
TTITLE5=One More Time  - Buddy Max
TTITLE6=Jesus큦 Misfit  - Kitty Houston
TTITLE7=An Old Soldier  - Loman Craig
TTITLE8=Tommorow큦 Sorrow  - Sandi
TTITLE9=East To West  - Loman Craig
TTITLE10=Warren큦 Dance  - Don Powell
TTITLE11=Poe And Shakespeare  - Phil Coley
TTITLE12=Care Fakes  - Roger Eydenburgh
TTITLE13=Real Brothers And Sisters  - Kitty Houston
TTITLE14=A Country Music Star  - Ray R Jones
TTITLE15=Down And Going - Sonny Payne
TTITLE16=My Best Stinks  - William Sherry
TTITLE17=Leave To Stay  - Kitty Houston
TTITLE18=You Broke Me  - Michael Hollaman
TTITLE19=Sail With The Wind  - Ray R Jones
TTITLE20=Ha Ha Aloha  - Loman Craig
TTITLE21=R A Fiddlin Man  - Barbara Dunn
EXTD=
EXTT0=
EXTT1=
EXTT2=
EXTT3=
EXTT4=
EXTT5=
EXTT6=
EXTT7=
EXTT8=
EXTT9=
EXTT10=
EXTT11=
EXTT12=
EXTT13=
EXTT14=
EXTT15=
EXTT16=
EXTT17=
EXTT18=
EXTT19=
EXTT20=
EXTT21=
PLAYORDER=
